<svg xmlns="http://www.w3.org/2000/svg" width="207.785" height="62.379" viewBox="0 0 207.785 62.379"><defs><style>.a{fill:#fff;}.b{fill:#6e87d6;}.c{fill:#00afc2;}.d{fill:#ffbf00;}.e{fill:#00a55d;}.f{fill:#444;}.g{fill:#eee;}.h{fill:#515151;}</style></defs><g transform="translate(66.319 4.097)"><path class="a" d="M1091.871-687.34a6.49,6.49,0,0,1-2.678,2.443,9.282,9.282,0,0,1-4.317.92,11.2,11.2,0,0,1-4.484-.853,7.574,7.574,0,0,1-3.163-2.46,7.094,7.094,0,0,1-1.356-3.748h5.02a3.834,3.834,0,0,0,1.155,2.393,3.62,3.62,0,0,0,2.627.954,3.057,3.057,0,0,0,2.259-.787,2.74,2.74,0,0,0,.787-2.025,2.655,2.655,0,0,0-.636-1.824,4.65,4.65,0,0,0-1.606-1.155q-.972-.434-2.677-1a26.35,26.35,0,0,1-3.615-1.456,6.676,6.676,0,0,1-2.393-2.092,5.992,5.992,0,0,1-.987-3.581,5.823,5.823,0,0,1,2.192-4.8,9.011,9.011,0,0,1,5.807-1.757,9.2,9.2,0,0,1,5.974,1.807,6.822,6.822,0,0,1,2.527,4.82h-5.087a3.546,3.546,0,0,0-1.071-2.092,3.327,3.327,0,0,0-2.376-.82,3.135,3.135,0,0,0-2.108.686,2.474,2.474,0,0,0-.8,1.991,2.472,2.472,0,0,0,.619,1.723,4.716,4.716,0,0,0,1.573,1.121,25.733,25.733,0,0,0,2.594.97,34.526,34.526,0,0,1,3.7,1.506,6.515,6.515,0,0,1,2.426,2.108,6.2,6.2,0,0,1,1,3.681A6.41,6.41,0,0,1,1091.871-687.34Z" transform="translate(-1075.806 708.976)"/><path class="a" d="M1155.669-689.083a6.016,6.016,0,0,1,2.376,2.979v-3.849h4.685v18.541h-4.685v-3.882a6.1,6.1,0,0,1-2.376,3,7.046,7.046,0,0,1-4.016,1.121,7.963,7.963,0,0,1-4.217-1.138,7.686,7.686,0,0,1-2.928-3.3,11.432,11.432,0,0,1-1.054-5.07,11.432,11.432,0,0,1,1.054-5.07,7.686,7.686,0,0,1,2.928-3.3,7.967,7.967,0,0,1,4.217-1.138A7.127,7.127,0,0,1,1155.669-689.083Zm-6.091,4.451a5.571,5.571,0,0,0-1.339,3.949,5.508,5.508,0,0,0,1.339,3.932,4.641,4.641,0,0,0,3.548,1.422,4.67,4.67,0,0,0,3.531-1.456,5.416,5.416,0,0,0,1.389-3.9,5.464,5.464,0,0,0-1.389-3.932,4.67,4.67,0,0,0-3.531-1.456A4.616,4.616,0,0,0,1149.578-684.632Z" transform="translate(-1123.942 696.179)"/><path class="a" d="M1254.073-688.212a8.367,8.367,0,0,1,1.958,5.941V-671.5h-4.685v-10.241a4.628,4.628,0,0,0-1.088-3.3,3.917,3.917,0,0,0-3-1.155,4.125,4.125,0,0,0-3.146,1.238,5.067,5.067,0,0,0-1.172,3.615v9.839h-4.685v-10.241a4.629,4.629,0,0,0-1.088-3.3,3.917,3.917,0,0,0-3-1.155,4.126,4.126,0,0,0-3.146,1.238,5.069,5.069,0,0,0-1.171,3.615v9.839h-4.719v-18.541h4.719v3.514a5.744,5.744,0,0,1,2.326-2.795,6.868,6.868,0,0,1,3.7-.987,7.027,7.027,0,0,1,3.9,1.071,6.551,6.551,0,0,1,2.493,3.079,6.994,6.994,0,0,1,2.594-3.029,6.937,6.937,0,0,1,3.865-1.122A6.959,6.959,0,0,1,1254.073-688.212Z" transform="translate(-1182.068 696.261)"/><path class="a" d="M1361.923-703.829a7.684,7.684,0,0,1,2.928,3.3,11.432,11.432,0,0,1,1.054,5.07,11.432,11.432,0,0,1-1.054,5.07,7.683,7.683,0,0,1-2.928,3.3,7.965,7.965,0,0,1-4.217,1.138,6.963,6.963,0,0,1-4-1.121,6.131,6.131,0,0,1-2.359-3v3.882h-4.719v-24.766h4.719v10.074a6.042,6.042,0,0,1,2.359-2.979,7.042,7.042,0,0,1,4-1.1A7.968,7.968,0,0,1,1361.923-703.829Zm-9.22,4.434a5.46,5.46,0,0,0-1.389,3.932,5.412,5.412,0,0,0,1.389,3.9,4.669,4.669,0,0,0,3.531,1.456,4.641,4.641,0,0,0,3.547-1.423,5.511,5.511,0,0,0,1.339-3.932,5.574,5.574,0,0,0-1.339-3.949,4.617,4.617,0,0,0-3.547-1.439A4.669,4.669,0,0,0,1352.7-699.395Z" transform="translate(-1268.516 710.958)"/><path class="a" d="M1434.033-689.083a6.014,6.014,0,0,1,2.376,2.979v-3.849h4.685v18.541h-4.685v-3.882a6.1,6.1,0,0,1-2.376,3,7.048,7.048,0,0,1-4.016,1.121,7.965,7.965,0,0,1-4.217-1.138,7.686,7.686,0,0,1-2.928-3.3,11.436,11.436,0,0,1-1.054-5.07,11.436,11.436,0,0,1,1.054-5.07,7.686,7.686,0,0,1,2.928-3.3,7.969,7.969,0,0,1,4.217-1.138A7.129,7.129,0,0,1,1434.033-689.083Zm-6.091,4.451a5.571,5.571,0,0,0-1.339,3.949,5.509,5.509,0,0,0,1.339,3.932,4.64,4.64,0,0,0,3.547,1.422,4.671,4.671,0,0,0,3.531-1.456,5.414,5.414,0,0,0,1.389-3.9,5.462,5.462,0,0,0-1.389-3.932,4.671,4.671,0,0,0-3.531-1.456A4.616,4.616,0,0,0,1427.942-684.632Z" transform="translate(-1322.018 696.179)"/><path class="a" d="M1501.566-689.375l5.053,12.584,4.685-12.584h5.188L1505.147-662h-5.221l4.184-9.371-7.8-18.005Z" transform="translate(-1375.026 695.6)"/></g><g transform="translate(66.823 36.68)"><path class="a" d="M1091.511-596.826a5.7,5.7,0,0,1,2.336,2.258,6.455,6.455,0,0,1,.789,3.188,7.777,7.777,0,0,1-.126,1.452,7.734,7.734,0,0,1-.442,1.61h-14.239a13.327,13.327,0,0,0-.126,1.421,4.8,4.8,0,0,0,1.452,3.8,5.385,5.385,0,0,0,3.694,1.279,7.293,7.293,0,0,0,4.088-1.168,6.077,6.077,0,0,0,2.478-3.157h2.336a9.026,9.026,0,0,1-3.41,4.452,9.754,9.754,0,0,1-5.746,1.7,7.1,7.1,0,0,1-5.13-1.831,6.665,6.665,0,0,1-1.91-5.052,11.8,11.8,0,0,1,.189-2.052,11.174,11.174,0,0,1,1.91-4.673,9.566,9.566,0,0,1,3.536-3.031,10.05,10.05,0,0,1,4.531-1.042A7.882,7.882,0,0,1,1091.511-596.826Zm.947,5.572a4.175,4.175,0,0,0-1.436-3.441,5.545,5.545,0,0,0-3.615-1.168,7.341,7.341,0,0,0-4.657,1.626,7.756,7.756,0,0,0-2.7,4.783h12.186A7.65,7.65,0,0,0,1092.458-591.253Z" transform="translate(-1077.556 597.757)"/><path class="a" d="M1147.093-588.277l4.231,8.619H1148.8l-3.473-7.072-5.651,7.072h-2.463l7.2-8.872-4.1-8.366h2.526l3.378,6.851,5.525-6.851h2.463Z" transform="translate(-1120.005 597.212)"/><path class="a" d="M1209.833-595.863a6.742,6.742,0,0,1,1.8,4.988,12.191,12.191,0,0,1-.19,2.052,12.037,12.037,0,0,1-1.894,4.688,9.648,9.648,0,0,1-3.394,3.078,9.053,9.053,0,0,1-4.341,1.073,6.39,6.39,0,0,1-4.262-1.358,5.293,5.293,0,0,1-1.863-3.6l-2.3,12.881h-2.21l4.483-25.383h2.21l-.821,4.736a8.7,8.7,0,0,1,3.157-3.6,8.487,8.487,0,0,1,4.736-1.357A6.611,6.611,0,0,1,1209.833-595.863Zm-3.3,12.076a8.51,8.51,0,0,0,2.636-5.036,11.23,11.23,0,0,0,.158-1.673,5.086,5.086,0,0,0-1.421-3.836,5.4,5.4,0,0,0-3.915-1.373,7.309,7.309,0,0,0-3.473.853,7.726,7.726,0,0,0-2.715,2.415,8.67,8.67,0,0,0-1.452,3.615,8.9,8.9,0,0,0-.158,1.547,5.2,5.2,0,0,0,1.468,3.9,5.333,5.333,0,0,0,3.9,1.436A7.208,7.208,0,0,0,1206.534-583.787Z" transform="translate(-1158.403 597.757)"/><path class="a" d="M1277.358-596.981a8.7,8.7,0,0,1,4.246-1.01l-.411,2.4h-.726a7.307,7.307,0,0,0-4.388,1.342,6.5,6.5,0,0,0-2.4,4.373v-.031l-1.674,9.471h-2.241l3.063-17.238h2.21l-.631,3.567A7.664,7.664,0,0,1,1277.358-596.981Z" transform="translate(-1214.327 597.991)"/><path class="a" d="M1326.08-596.826a5.694,5.694,0,0,1,2.336,2.258,6.452,6.452,0,0,1,.79,3.188,7.8,7.8,0,0,1-.126,1.452,7.757,7.757,0,0,1-.442,1.61H1314.4a13.307,13.307,0,0,0-.126,1.421,4.8,4.8,0,0,0,1.452,3.8,5.385,5.385,0,0,0,3.694,1.279,7.293,7.293,0,0,0,4.089-1.168,6.08,6.08,0,0,0,2.478-3.157h2.336a9.026,9.026,0,0,1-3.41,4.452,9.754,9.754,0,0,1-5.746,1.7,7.1,7.1,0,0,1-5.13-1.831,6.665,6.665,0,0,1-1.91-5.052,11.86,11.86,0,0,1,.189-2.052,11.176,11.176,0,0,1,1.91-4.673,9.561,9.561,0,0,1,3.536-3.031,10.049,10.049,0,0,1,4.53-1.042A7.883,7.883,0,0,1,1326.08-596.826Zm.947,5.572a4.175,4.175,0,0,0-1.436-3.441,5.546,5.546,0,0,0-3.615-1.168,7.341,7.341,0,0,0-4.656,1.626,7.754,7.754,0,0,0-2.7,4.783h12.186A7.663,7.663,0,0,0,1327.026-591.253Z" transform="translate(-1244.469 597.757)"/><path class="a" d="M1390.627-596.178a5.047,5.047,0,0,1,1.61,4.01h-2.21a3.519,3.519,0,0,0-1.042-2.763,4.639,4.639,0,0,0-3.378-1.089,4.265,4.265,0,0,0-2.794.868,2.815,2.815,0,0,0-1.057,2.289,2.093,2.093,0,0,0,.552,1.5,3.864,3.864,0,0,0,1.357.916,21.761,21.761,0,0,0,2.258.742,21.08,21.08,0,0,1,2.747.931,4.722,4.722,0,0,1,1.768,1.342,3.567,3.567,0,0,1,.726,2.336,8.925,8.925,0,0,1-.126,1.168,4.323,4.323,0,0,1-1.863,2.857,6.813,6.813,0,0,1-4.01,1.089,7.811,7.811,0,0,1-5.02-1.468,4.8,4.8,0,0,1-1.8-4.025h2.179a3.158,3.158,0,0,0,1.121,2.778,5.605,5.605,0,0,0,3.741,1.074,4.079,4.079,0,0,0,2.447-.695,2.724,2.724,0,0,0,1.152-1.8,6.821,6.821,0,0,0,.063-.695,2.383,2.383,0,0,0-.584-1.657,3.912,3.912,0,0,0-1.421-.995q-.837-.347-2.321-.789a22.189,22.189,0,0,1-2.62-.9,4.525,4.525,0,0,1-1.673-1.247,3.257,3.257,0,0,1-.695-2.178,6.4,6.4,0,0,1,.095-1.042,4.376,4.376,0,0,1,1.894-2.936,7.006,7.006,0,0,1,4.1-1.105A6.934,6.934,0,0,1,1390.627-596.178Z" transform="translate(-1291.589 597.757)"/><path class="a" d="M1444.48-596.178a5.049,5.049,0,0,1,1.61,4.01h-2.21a3.516,3.516,0,0,0-1.042-2.763,4.639,4.639,0,0,0-3.378-1.089,4.264,4.264,0,0,0-2.794.868,2.815,2.815,0,0,0-1.058,2.289,2.093,2.093,0,0,0,.553,1.5,3.859,3.859,0,0,0,1.358.916,21.672,21.672,0,0,0,2.257.742,21.093,21.093,0,0,1,2.747.931,4.715,4.715,0,0,1,1.768,1.342,3.565,3.565,0,0,1,.726,2.336,8.909,8.909,0,0,1-.126,1.168,4.322,4.322,0,0,1-1.863,2.857,6.812,6.812,0,0,1-4.009,1.089,7.811,7.811,0,0,1-5.02-1.468,4.8,4.8,0,0,1-1.8-4.025h2.178a3.159,3.159,0,0,0,1.121,2.778,5.607,5.607,0,0,0,3.741,1.074,4.078,4.078,0,0,0,2.447-.695,2.725,2.725,0,0,0,1.152-1.8,6.726,6.726,0,0,0,.063-.695,2.381,2.381,0,0,0-.584-1.657,3.913,3.913,0,0,0-1.421-.995q-.837-.347-2.321-.789a22.176,22.176,0,0,1-2.621-.9,4.528,4.528,0,0,1-1.673-1.247,3.258,3.258,0,0,1-.695-2.178,6.4,6.4,0,0,1,.095-1.042,4.377,4.377,0,0,1,1.894-2.936,7.006,7.006,0,0,1,4.1-1.105A6.934,6.934,0,0,1,1444.48-596.178Z" transform="translate(-1329.909 597.757)"/></g><path class="a" d="M905.564-704.262c-.014-.051-.029-.1-.046-.151l-.067-.194a30.44,30.44,0,0,0-5.893-10.106,30.613,30.613,0,0,0-9.035-7.052l-.018-.009-.114-.059c-.141-.072-.288-.145-.446-.222l-.058-.029-.151-.074-.064-.03-.016-.008c-.3-.142-.6-.281-.935-.425l-.018-.008-.05-.022a30.426,30.426,0,0,0-7.879-2.213l-.09-.013c-.18-.025-.346-.046-.5-.065l-.129-.015-.047-.005c-.461-.053-.927-.1-1.384-.126-.136-.009-.271-.018-.409-.026l-.288-.014c-.149-.007-.305-.013-.463-.018l-.052,0-.189-.005c-.261-.006-.493-.009-.71-.009a30.317,30.317,0,0,0-14.053,3.407l-.01.006a20.771,20.771,0,0,0-7.2,5.712l-.006.008-.033.045-.02.027a9.347,9.347,0,0,0-.6.927,22.957,22.957,0,0,0-1.747,1.718,27.563,27.563,0,0,0-6.683,14.682,30.517,30.517,0,0,0,.419,10.469,28.117,28.117,0,0,0,4.711,11,2.419,2.419,0,0,0,1.877.974,2.426,2.426,0,0,0,.554,2.155,30.7,30.7,0,0,0,22.8,10.164,30.44,30.44,0,0,0,17.086-5.2,2.033,2.033,0,0,0,.352-.213l.959-.72a30.917,30.917,0,0,0,8.913-10.592,30.32,30.32,0,0,0,3.337-13.92A30.518,30.518,0,0,0,905.564-704.262Z" transform="translate(-845.875 725.162)"/><g transform="translate(2.043 2.041)"><path class="b" d="M859.858-657.463a11.779,11.779,0,0,0-.245,2.7,28.54,28.54,0,0,1-3.868-18.313,24.822,24.822,0,0,1,5.961-13.2,18.738,18.738,0,0,1,3.276-2.871c.18-.116.362-.23.544-.34q.3-.182.608-.355l.057.006h0c1.459.2,7.838,2.88,10.337,9.433.021.055.043.111.063.167s.045.126.068.19c.028.08.056.161.083.241.017.052.035.1.052.157q.059.185.114.372c0,.012.007.023.01.035s.014.05.021.075c.033.114.065.228.1.341.014.053.028.106.042.16l0,.019c.02.075.039.148.057.223s.034.138.05.207h0l.011.044.037.156c.017.075.034.15.051.224h0l.01.045c.01.046.02.091.029.136.016.077.033.155.048.232h0l0,.019q.019.1.037.192c.012.065.024.13.035.194h0c.013.071.025.143.037.214h0c.01.06.019.121.029.18h0q.016.105.032.209h0c.009.06.016.119.024.178h0c.009.069.018.137.026.2h0c.007.054.013.108.018.161l0,.023h0c.007.064.014.129.021.192h0c.006.057.011.114.016.171h0q.009.1.017.2h0c0,.056.009.111.013.167h0c0,.066.009.131.013.2h0c0,.054.007.108.01.162h0c0,.065.006.13.009.195h0c0,.052,0,.1.006.157h0c0,.065,0,.131,0,.2h0c0,.05,0,.1,0,.148h0c0,.044,0,.086,0,.13,0,.022,0,.045,0,.067h0c0,.048,0,.095,0,.142h0v0c0,.065,0,.129,0,.193h0c0,.044,0,.088,0,.132h0c0,.069,0,.137-.008.206h0c0,.04,0,.079-.006.118h0c0,.072-.008.143-.013.214h0c0,.034,0,.069-.007.1h0c-.005.079-.012.156-.019.233h0c0,.025,0,.05-.006.075h0c-.009.094-.018.187-.029.279h0l0,.024h0c-.031.272-.072.543-.118.811a2.9,2.9,0,0,1-2.887,2.23h0c-4.487.026-8.067,1.2-10.662,3.518A12.875,12.875,0,0,0,859.858-657.463Z" transform="translate(-854.769 697.99)"/><path class="b" d="M877.735-609.726a11.363,11.363,0,0,1,2.549-3.31,14.441,14.441,0,0,1,9.233-3.3h.013q1.024-.045,2.12,0h0s.807.043,1.019-.472l-.212.515a10.675,10.675,0,0,1-1.185,2.1l-.009.012-.033.044-.02.027-.02.026-.031.041-.006.007c-.077.1-.143.178-.191.234-.3-.019-.876-.046-1.628-.033C886.448-613.8,880.843-613.238,877.735-609.726Z" transform="translate(-870.589 646.022)"/><path class="c" d="M919.887-577.134c0,.077-.01.153-.014.23-.008.15-.016.3-.028.451-.007.093-.019.185-.028.277-.013.134-.025.268-.041.4-.012.1-.028.195-.042.292-.018.127-.035.254-.055.381-.016.1-.037.2-.055.3-.023.123-.044.247-.07.369-.021.1-.045.2-.068.3-.028.121-.054.242-.084.362-.025.1-.054.2-.08.3-.032.12-.064.24-.1.359-.029.1-.061.195-.092.292s-.063.2-.1.3a27.629,27.629,0,0,1-16.636,5.508,27.922,27.922,0,0,1-20.137-8.6,13.615,13.615,0,0,0,7.41-3.3,15,15,0,0,0,4.747-6.056v0s.191-.424.656.063l.165.175.134.14.167.171.134.135.17.167.133.129.174.164.132.123.179.162.129.115.187.161.125.107c.066.055.131.108.2.161l.119.1c.072.057.144.112.216.167l.106.08c.087.065.175.129.264.192l.062.045q.332.234.676.446l.093.055c.084.051.168.1.254.15l.124.069c.076.042.153.085.23.126l.141.073c.073.037.147.075.221.112l.152.072c.073.034.145.069.219.1l.161.07c.073.031.146.063.22.093l.169.067c.073.029.147.057.222.085l.176.063.225.078.183.059.23.07.189.055.235.064.194.05.241.057.2.045.248.05.206.04.257.044.211.034.266.038.215.029c.092.011.185.021.279.032l.218.023c.1.01.2.017.295.025l.216.018.319.019.208.011c.12.006.243.009.365.013l.178.006q.276.006.56.006c.151,0,.3,0,.452-.006l.183-.006.255-.01L907.8-580l.172-.011.3-.022.055,0a19.141,19.141,0,0,0,6.146-1.581l.051-.022.213-.1.235-.11.1-.049a19.24,19.24,0,0,0,3.579-2.246c.036.088.071.176.106.264l.043.108q.075.2.145.393c.014.04.027.08.041.119.032.093.064.185.095.278.017.053.034.106.05.159.025.081.051.161.075.241.017.058.034.115.05.173.022.077.044.153.065.23.016.06.032.12.047.18.019.075.039.151.057.226s.029.123.044.184.034.149.051.224.026.125.039.187.03.15.045.225.023.125.035.188.026.151.039.226.02.126.03.188.023.153.033.229.017.125.025.187c.01.078.019.156.028.234.007.062.014.123.02.185.008.08.015.16.022.24.005.06.011.12.015.181.006.085.011.169.016.254,0,.056.007.112.01.168,0,.095.008.189.011.284,0,.047,0,.094.005.141q.005.212.005.426Q919.9-577.476,919.887-577.134Z" transform="translate(-873.81 623.487)"/><path class="d" d="M1011.285-618.561c.013-.048.024-.1.036-.145q.029-.11.056-.221.054-.219.1-.44c.015-.069.031-.139.045-.208q.058-.285.107-.572c0-.024.009-.048.013-.072.036-.215.066-.43.094-.646.008-.065.015-.13.022-.195q.027-.232.048-.464c.006-.076.013-.151.018-.227.012-.154.021-.308.029-.461,0-.068.007-.136.01-.2.008-.22.014-.439.014-.66q0-.227-.006-.452c0-.05,0-.1-.005-.151,0-.1-.007-.2-.011-.3,0-.061-.008-.123-.012-.184-.005-.088-.01-.176-.017-.264-.005-.065-.012-.13-.017-.194-.007-.084-.014-.168-.023-.252-.007-.066-.015-.133-.023-.2-.009-.081-.018-.163-.029-.244s-.019-.136-.028-.2-.022-.158-.034-.236-.023-.139-.034-.208-.026-.154-.04-.23-.026-.14-.04-.209-.03-.151-.045-.227-.03-.14-.046-.21-.033-.149-.05-.223-.034-.14-.051-.21-.037-.147-.056-.22-.037-.141-.057-.211-.04-.145-.061-.217-.042-.141-.063-.211-.044-.142-.066-.213-.046-.141-.069-.211-.047-.141-.071-.211-.05-.141-.075-.211-.051-.138-.077-.208-.053-.14-.081-.211-.054-.136-.082-.2-.058-.141-.088-.211c-.011-.026-.021-.053-.032-.079a19.267,19.267,0,0,0,5.966-9.3c.006-.022.013-.044.019-.066q.048-.168.092-.337l.042-.16c.024-.093.046-.187.069-.281.018-.074.035-.147.052-.221s.036-.161.053-.242.036-.175.054-.263c.014-.072.028-.143.041-.216.018-.1.035-.195.052-.292.011-.066.022-.131.033-.2.017-.1.032-.208.047-.313.009-.061.018-.123.026-.185.015-.108.027-.218.04-.327.007-.059.014-.118.02-.176.012-.112.022-.224.032-.336.005-.057.011-.115.015-.172.009-.115.016-.23.024-.346,0-.055.008-.11.01-.165.006-.122.011-.246.015-.369,0-.048,0-.1.005-.145q.007-.256.007-.514a19.339,19.339,0,0,0-.287-3.323,3.8,3.8,0,0,0,.681.063,3.864,3.864,0,0,0,.536-.037,3.853,3.853,0,0,0,2.018-.926,27.767,27.767,0,0,1,1.361,8.606A27.639,27.639,0,0,1,1011.285-618.561Z" transform="translate(-965.053 668.744)"/><path class="e" d="M895.79-712.439a27.562,27.562,0,0,1,12.777-3.1c.216,0,.43,0,.645.008l.217.006q.212.007.424.016l.259.013c.127.007.253.016.379.024q.257.018.514.04l.3.027c.139.014.278.029.417.045l.17.019c.151.018.3.038.452.058l.08.011a27.79,27.79,0,0,1,6.645,1.789l.009,0q.243.1.483.2h0c.242.1.482.213.721.324l.282.132.2.1q.208.1.414.206l.107.055a28.026,28.026,0,0,1,13.523,15.418,3.123,3.123,0,0,1-1.857.966,3.093,3.093,0,0,1-1.267-.085c-.011-.049-.024-.1-.035-.145q-.057-.253-.12-.5c-.029-.112-.059-.224-.09-.337s-.069-.246-.1-.368-.075-.251-.115-.376c-.046-.145-.094-.289-.143-.432-.034-.1-.069-.2-.1-.3q-.093-.257-.193-.51c-.038-.1-.078-.191-.117-.287q-.073-.174-.148-.347-.093-.212-.191-.422c-.05-.107-.1-.214-.153-.32s-.1-.21-.157-.315q-.111-.217-.228-.431c-.065-.119-.131-.237-.2-.355l-.085-.146q-.2-.336-.4-.663l-.031-.048a19.373,19.373,0,0,0-3.968-4.479,19.2,19.2,0,0,0-3.907-2.5l-.035-.017c-.108-.052-.217-.1-.326-.152-.087-.04-.175-.079-.263-.117l-.091-.04a19.138,19.138,0,0,0-5.946-1.506l-.056,0q-.164-.014-.328-.025l-.156-.01-.265-.015-.245-.009-.2-.006c-.152,0-.3-.006-.456-.006q-.261,0-.521.007l-.174.007c-.115,0-.231.008-.346.014l-.2.013c-.1.006-.2.012-.3.02l-.019,0-.214.02c-.092.008-.185.016-.276.026l-.025,0c-.074.008-.148.018-.222.027s-.174.02-.26.031l-.031,0c-.075.01-.149.022-.224.033-.1.014-.191.027-.286.043l-.224.039c-.094.016-.188.033-.282.05l-.224.045c-.093.019-.186.037-.279.057l-.224.051c-.092.021-.184.042-.276.065l-.223.057-.273.072-.222.063-.27.079-.22.069-.268.086-.218.074-.266.093-.214.08c-.088.033-.176.066-.263.1l-.213.085-.26.108-.21.091c-.086.038-.172.075-.257.114l-.208.1-.254.121-.206.1-.25.127-.2.108-.247.134-.2.113-.243.14-.2.119-.239.147-.2.124-.234.153-.194.13-.229.159-.191.136c-.075.054-.15.109-.224.165l-.188.141c-.074.056-.147.113-.22.17l-.185.147c-.072.058-.143.117-.215.176l-.183.153-.208.18-.181.16c-.068.061-.135.123-.2.185s-.119.11-.178.166-.131.126-.2.189-.118.115-.176.173-.127.128-.189.193-.117.119-.174.18-.122.13-.182.2-.115.124-.172.188l-.046.05a17.905,17.905,0,0,0-2.1-1.707c-.37-.258-.735-.492-1.091-.7.13.058.206.094.206.094-.19-.1-.372-.2-.55-.293a14.755,14.755,0,0,0-2.073-.974,9.553,9.553,0,0,0-1.9-.592A21.516,21.516,0,0,1,895.79-712.439Z" transform="translate(-879.978 716.271)"/><path class="a" d="M918.921-670.461a4.282,4.282,0,0,0-.923-.72c.995-.023,1.648.022,1.726.028h.034l.02,0,.038,0a.367.367,0,0,0,.353-.268l.106-.128c.907-1.109,3.49-4.949,2.41-11.465h0l0-.025c-.031-.187-.065-.375-.1-.566,0-.011,0-.022-.006-.032l0-.019h0q-.018-.093-.038-.186h0c-.008-.04-.017-.08-.026-.12-.021-.1-.044-.2-.068-.305h0c-.016-.07-.033-.14-.049-.211l-.011-.044h0c-.014-.059-.027-.117-.042-.176h0c-.005-.022-.012-.045-.017-.068-.012-.049-.025-.1-.037-.147l-.014-.054-.005-.019h0c-.013-.05-.027-.1-.041-.15h0c-.039-.147-.08-.3-.124-.444l-.014-.044q-.056-.19-.115-.377c-.015-.047-.031-.093-.046-.139l-.016-.048h0c-.026-.078-.053-.157-.08-.234l-.059-.165,0-.01,0-.01q-.045-.121-.09-.24c-.02-.052-.04-.1-.06-.156q-.07-.178-.144-.351c-.024-.057-.049-.113-.074-.169-.037-.084-.074-.167-.111-.249-.029-.062-.058-.124-.087-.186s-.063-.132-.1-.2-.064-.129-.1-.193-.067-.128-.1-.192q-.089-.168-.182-.334c-.031-.055-.062-.111-.094-.166s-.08-.138-.121-.206l-.091-.15c-.042-.069-.084-.138-.127-.206-.031-.049-.063-.1-.095-.147q-.111-.171-.227-.341l-.1-.147c-.045-.064-.09-.127-.136-.19s-.08-.108-.12-.162q-.1-.135-.2-.269l-.142-.181-.13-.16q-.078-.1-.157-.189l-.05-.06h0l-.008-.009-.106-.121c-.064-.073-.128-.145-.192-.216l0,0h0l-.022-.024h0c-.034-.038-.069-.075-.1-.112-.061-.066-.122-.13-.183-.195l-.006-.007h0l-.015-.015h0l-.067-.072.06-.068c.051-.057.1-.114.156-.171s.122-.132.184-.2.108-.113.162-.168.123-.127.186-.189.112-.111.169-.167.125-.122.188-.181.116-.109.174-.163l.191-.174.18-.16.193-.167.186-.156.195-.159.192-.152.2-.153.2-.148.2-.146.2-.144.2-.14.206-.139.2-.133.211-.134.206-.127.214-.128.209-.121.218-.123.211-.115.222-.118.214-.109.225-.112.217-.1.227-.106.22-.1.23-.1c.074-.031.149-.062.223-.092l.231-.093c.075-.03.151-.058.227-.087l.233-.087.229-.08.235-.081.232-.075.236-.074.236-.069.237-.068.241-.063.236-.061c.081-.02.163-.038.244-.057l.237-.054c.082-.018.165-.034.247-.051l.236-.048c.084-.016.169-.03.254-.045l.234-.041.26-.039.23-.034c.089-.012.178-.022.268-.033l.225-.027c.093-.01.186-.018.278-.026l.217-.021c.1-.008.2-.014.3-.02l.2-.013c.112-.006.224-.01.335-.014l.165-.007q.251-.007.5-.007.222,0,.443.005l.184.006.246.009.249.014.165.01.307.024.076.007a18.645,18.645,0,0,1,12.5,6.515l.08.095.139.169c.054.067.108.133.162.2l.074.094a18.468,18.468,0,0,1,3.933,11.411q0,.25-.007.5c0,.049,0,.1-.006.146,0,.118-.008.235-.014.353,0,.055-.007.11-.01.164-.007.111-.014.222-.023.333,0,.057-.01.114-.015.17-.01.108-.02.216-.031.324-.006.058-.013.116-.02.174-.012.106-.025.212-.039.317-.008.059-.016.118-.025.177q-.023.154-.047.308c-.01.062-.02.123-.031.185-.017.1-.034.194-.052.291-.013.066-.025.133-.038.2-.018.089-.036.177-.055.266s-.031.148-.048.221-.035.148-.053.222-.042.175-.064.261c-.011.044-.023.087-.035.132a18.644,18.644,0,0,1-9.865,11.966l-.13.062-.212.1-.249.112-.079.035a18.6,18.6,0,0,1-5.751,1.471l-.07.006c-.1.009-.207.017-.311.024l-.156.01-.254.014-.241.009-.187.006q-.22.005-.441.005-.278,0-.547-.006l-.167-.006c-.121,0-.243-.007-.362-.012l-.2-.012c-.1-.006-.208-.011-.31-.018l-.214-.018c-.095-.008-.19-.015-.283-.023-.073-.007-.144-.016-.216-.023-.089-.01-.178-.018-.266-.029-.071-.009-.14-.019-.21-.029-.086-.012-.172-.022-.256-.035s-.137-.023-.206-.034-.165-.026-.246-.041-.134-.026-.2-.04-.16-.031-.238-.047-.13-.03-.2-.045-.154-.035-.23-.053-.128-.033-.192-.05-.148-.038-.221-.059l-.188-.056c-.071-.021-.143-.042-.213-.065l-.183-.062c-.069-.023-.139-.046-.207-.07l-.178-.067c-.067-.025-.135-.05-.2-.076s-.116-.048-.175-.073-.131-.054-.2-.082l-.17-.078c-.064-.029-.128-.058-.19-.088s-.111-.055-.166-.083-.124-.061-.185-.094l-.162-.087c-.061-.033-.122-.066-.182-.1s-.105-.061-.158-.092-.119-.069-.178-.105-.1-.065-.155-.1-.116-.073-.174-.111l-.153-.1-.17-.117c-.05-.035-.1-.072-.15-.108l-.168-.122-.148-.113-.164-.127-.146-.119-.162-.133c-.048-.04-.1-.082-.144-.123l-.16-.138-.142-.128c-.053-.048-.106-.1-.159-.145l-.14-.132-.158-.15-.14-.137-.157-.156-.139-.142-.156-.161-.139-.148-.156-.166-.139-.152-.156-.172-.139-.156-.157-.178-.139-.16-.1-.122A4.548,4.548,0,0,0,918.921-670.461Z" transform="translate(-899.239 704.116)"/><path class="a" d="M918.207-678.548a.6.6,0,0,1,.128-.725c.348-.357-.3-.456-.4-.3s-.341.719-.341.719l.208.31Z" transform="translate(-898.954 690.732)"/><path class="f" d="M908.628-698.7l0,0-.067-.194a28.606,28.606,0,0,0-13.937-16.016l-.122-.063q-.209-.106-.419-.209l-.191-.094-.077-.036q-.432-.205-.871-.4l-.064-.028a28.362,28.362,0,0,0-7.352-2.065l-.083-.012c-.157-.021-.315-.042-.473-.061l-.162-.018q-.643-.074-1.293-.118c-.127-.009-.254-.017-.381-.024l-.271-.014q-.216-.01-.432-.016l-.224-.007c-.221-.005-.442-.008-.663-.008a28.293,28.293,0,0,0-13.116,3.18,18.821,18.821,0,0,0-6.512,5.125l-.033.045-.01.013a5.993,5.993,0,0,0-.585.938l-.046.085a20.632,20.632,0,0,0-1.864,1.8,25.536,25.536,0,0,0-6.172,13.614c-.826,5.4.309,13.945,4.752,19.946a.368.368,0,0,0,.3.148.366.366,0,0,0,.134-.025.368.368,0,0,0,.232-.382,12.245,12.245,0,0,1,.083-3.483l.043,0a8.893,8.893,0,0,1,.35-1.486,7.987,7.987,0,0,1,1.806-2.893c2.289-2.352,5.813-3.229,8.544-3.54a3.6,3.6,0,0,1,2.666,1.079,3.823,3.823,0,0,1,1.045,3.024c-.684,4.587-8.078,10.427-12.575,9.922a.368.368,0,0,0-.368.2.367.367,0,0,0,.054.414,28.656,28.656,0,0,0,21.278,9.488,28.343,28.343,0,0,0,16.226-5.044l-.013.039.959-.721a28.863,28.863,0,0,0,8.321-9.889,28.3,28.3,0,0,0,3.114-12.992A28.482,28.482,0,0,0,908.628-698.7ZM868.77-714.253a27.561,27.561,0,0,1,12.777-3.1c.216,0,.43,0,.645.008l.217.006q.212.006.424.016l.259.013c.127.007.253.016.379.024q.257.018.514.04l.3.027c.139.014.278.029.417.045l.17.019c.151.018.3.038.452.058l.08.011a27.787,27.787,0,0,1,6.645,1.789l.009,0q.243.1.484.2h0c.242.1.482.213.721.324l.282.132.2.1q.208.1.414.206l.107.055a28.027,28.027,0,0,1,13.523,15.418,3.122,3.122,0,0,1-1.857.966,3.091,3.091,0,0,1-1.267-.085c-.011-.049-.024-.1-.035-.145q-.057-.253-.121-.5c-.029-.113-.059-.224-.09-.337s-.069-.246-.1-.368-.075-.251-.115-.376q-.069-.217-.143-.432c-.034-.1-.069-.2-.1-.3q-.093-.257-.193-.51c-.038-.1-.078-.191-.117-.287q-.073-.174-.148-.347-.093-.212-.191-.422c-.05-.107-.1-.214-.153-.32s-.1-.211-.157-.315q-.111-.217-.228-.431c-.065-.119-.131-.237-.2-.355-.028-.049-.057-.1-.085-.146q-.2-.336-.405-.663l-.031-.048a19.374,19.374,0,0,0-3.968-4.479,19.2,19.2,0,0,0-3.907-2.5l-.035-.017q-.162-.077-.326-.152c-.087-.04-.175-.079-.263-.117l-.091-.04a19.143,19.143,0,0,0-5.946-1.507l-.056,0q-.164-.014-.328-.025l-.156-.01-.265-.015-.245-.009-.2-.006c-.152,0-.3-.006-.456-.006q-.261,0-.522.007l-.174.007c-.115,0-.231.008-.346.014l-.2.013c-.1.006-.2.012-.3.02l-.019,0-.214.02-.277.026-.025,0c-.074.008-.148.018-.222.027s-.174.02-.26.031l-.031,0-.224.033c-.1.014-.191.027-.286.043l-.224.039c-.094.016-.188.033-.282.051l-.224.045c-.093.019-.186.037-.279.057l-.224.051-.276.065-.223.057-.273.072-.222.063c-.09.026-.18.052-.27.079l-.22.069-.268.086-.217.074-.266.093-.215.08-.263.1-.213.085-.26.108-.21.091c-.086.037-.172.075-.257.114l-.208.1-.254.121-.206.1-.25.127-.2.107-.247.134-.2.113-.243.141-.2.118-.239.147-.2.124-.234.153-.193.13-.229.159-.191.136c-.075.054-.15.109-.224.165l-.188.141c-.074.056-.147.113-.22.17l-.185.147-.215.176-.183.153-.209.18-.181.159c-.068.061-.135.123-.2.185s-.119.11-.178.166-.131.126-.2.189-.118.114-.176.173-.127.128-.189.193-.117.119-.174.18-.122.13-.183.2-.115.124-.172.188l-.046.05a17.9,17.9,0,0,0-2.1-1.707c-.37-.258-.735-.492-1.091-.7.13.058.206.094.206.094-.19-.1-.372-.2-.55-.293a14.753,14.753,0,0,0-2.073-.974,9.546,9.546,0,0,0-1.9-.592A21.515,21.515,0,0,1,868.77-714.253Zm-10.722,36.695a11.782,11.782,0,0,0-.245,2.7,28.54,28.54,0,0,1-3.868-18.313,24.821,24.821,0,0,1,5.961-13.2,18.75,18.75,0,0,1,3.276-2.871c.18-.116.362-.23.545-.34q.3-.182.608-.354l.057.006h0c1.459.2,7.838,2.88,10.337,9.433.021.055.043.111.063.167s.045.126.068.189c.028.08.056.161.083.241.017.052.035.1.052.157q.059.185.114.372l.01.035c.008.025.014.05.021.075.033.114.065.228.1.341l.042.16,0,.019q.029.112.057.223c.017.069.034.138.05.207h0l.011.044.037.156c.017.075.034.15.05.224h0l.01.045.029.136c.016.077.033.155.048.232h0l0,.019c.013.064.025.128.037.191s.024.13.035.194h0c.013.071.025.143.037.214h0c.01.06.019.121.029.18h0q.017.105.032.209h0c.009.06.016.119.024.178h0c.009.069.018.137.026.2h0c.007.054.012.108.018.161l0,.023h0c.007.064.014.129.021.192h0c.006.057.011.114.017.171h0c.006.067.012.133.017.2h0c0,.056.009.111.013.167h0c0,.066.009.131.013.2h0c0,.054.007.108.01.162h0c0,.065.006.13.009.2h0c0,.052,0,.1.006.156h0c0,.065,0,.131,0,.2h0c0,.05,0,.1,0,.148h0c0,.044,0,.087,0,.13,0,.022,0,.045,0,.067h0c0,.048,0,.095,0,.142h0v0c0,.065,0,.129,0,.193h0c0,.044,0,.088,0,.132h0c0,.069,0,.137-.008.206h0c0,.039,0,.079-.006.118h0c0,.072-.008.143-.013.214h0l-.007.1h0c-.005.079-.012.156-.019.233h0c0,.025,0,.05-.006.075h0q-.013.141-.029.279h0l0,.024h0c-.031.272-.072.543-.118.811a2.9,2.9,0,0,1-2.887,2.229h0c-4.487.026-8.067,1.2-10.662,3.518A12.873,12.873,0,0,0,858.048-677.558Zm2.057-4.231a11.364,11.364,0,0,1,2.549-3.31,14.442,14.442,0,0,1,9.233-3.3h.013q1.024-.045,2.12,0h0s.807.043,1.019-.472l-.212.515a10.681,10.681,0,0,1-1.185,2.1l-.009.012-.033.044-.021.027-.02.026-.031.041-.006.007c-.077.1-.143.178-.191.234-.3-.019-.876-.046-1.628-.033C868.818-685.862,863.213-685.3,860.105-681.789Zm12.536-2.642a4.283,4.283,0,0,0-.923-.72c.995-.022,1.648.022,1.726.028h.033l.02,0,.038,0a.367.367,0,0,0,.353-.268l.106-.128c.907-1.109,3.49-4.949,2.41-11.465h0l0-.025q-.047-.28-.1-.567c0-.011,0-.022-.006-.032l0-.019h0c-.012-.062-.025-.124-.038-.186h0c-.008-.04-.017-.08-.026-.12q-.032-.152-.068-.305h0c-.016-.07-.033-.14-.049-.211l-.011-.044h0c-.014-.059-.027-.117-.042-.176h0l-.017-.068c-.012-.049-.025-.1-.037-.147l-.014-.054-.005-.019h0c-.013-.049-.027-.1-.041-.15h0q-.059-.221-.124-.445l-.013-.044q-.056-.19-.115-.377c-.015-.046-.031-.093-.046-.139l-.016-.048h0c-.026-.078-.053-.157-.08-.234l-.059-.165,0-.01,0-.01q-.044-.121-.09-.24c-.02-.052-.04-.1-.06-.156q-.07-.177-.144-.351c-.024-.057-.049-.113-.074-.169-.037-.084-.074-.167-.111-.249-.029-.062-.058-.124-.087-.186s-.063-.132-.1-.2-.064-.129-.1-.194-.067-.128-.1-.192q-.089-.168-.182-.334c-.031-.055-.062-.111-.093-.166s-.08-.138-.121-.206l-.091-.15c-.042-.069-.084-.138-.128-.206-.031-.049-.063-.1-.095-.147q-.111-.171-.227-.341l-.1-.147q-.067-.1-.136-.19c-.039-.055-.08-.108-.12-.162q-.1-.135-.2-.269l-.142-.181-.13-.16-.157-.189-.05-.06h0l-.008-.009-.106-.121c-.064-.073-.127-.145-.192-.216l0,0h0l-.022-.024h0l-.1-.112q-.091-.1-.183-.195l-.006-.007h0l-.015-.015h0l-.067-.072.06-.068c.051-.057.1-.114.156-.17s.122-.132.184-.2.108-.113.162-.168.123-.127.186-.189.113-.111.169-.167.125-.122.188-.181l.174-.163.191-.174.18-.159.193-.167.186-.156.195-.159.191-.152.2-.153.2-.148.2-.146.2-.144.2-.14.206-.139.2-.133.211-.134.207-.127.214-.128.209-.121.218-.123.211-.115.222-.118.214-.109.225-.112.217-.1.227-.106.22-.1.23-.1.223-.092.231-.093.227-.087.233-.087.229-.08.235-.081.232-.075.236-.074.236-.069.237-.068.241-.063.236-.061c.081-.02.163-.038.244-.057l.237-.054.247-.051.236-.048c.084-.016.169-.03.254-.045l.234-.041.26-.039.23-.034c.089-.012.179-.022.268-.033l.225-.027c.093-.01.186-.018.278-.027l.217-.02c.1-.008.2-.014.3-.02l.2-.013c.112-.006.223-.01.335-.014l.165-.007c.167,0,.335-.007.5-.007.148,0,.3,0,.443.005l.184.006.246.009.249.014.165.01.307.024.076.007a18.645,18.645,0,0,1,12.5,6.515l.08.095.139.169c.054.067.108.133.162.2l.074.094a18.469,18.469,0,0,1,3.933,11.411c0,.167,0,.333-.007.5,0,.049,0,.1-.006.146,0,.118-.008.235-.014.353,0,.055-.007.11-.01.164-.007.111-.014.222-.023.333,0,.057-.01.114-.015.17-.01.108-.02.216-.031.324-.006.058-.013.116-.02.174-.012.106-.025.212-.039.317-.008.059-.016.118-.025.177q-.022.154-.047.308c-.01.062-.02.123-.031.185q-.025.146-.053.291c-.013.066-.025.133-.038.2-.018.089-.036.177-.055.266s-.031.148-.048.221-.035.148-.053.222-.042.175-.064.262c-.011.044-.023.087-.035.131a18.644,18.644,0,0,1-9.865,11.966l-.13.062-.212.1-.249.112-.079.035a18.607,18.607,0,0,1-5.751,1.471l-.07.006c-.1.009-.207.017-.312.024l-.156.01-.254.014-.241.009-.187.006q-.22.005-.441.005-.278,0-.547-.006l-.167-.006c-.121,0-.243-.007-.362-.012l-.2-.012c-.1-.006-.208-.011-.31-.018l-.214-.018c-.095-.008-.19-.015-.283-.023-.073-.007-.144-.016-.216-.023-.089-.01-.179-.018-.266-.029-.071-.009-.14-.019-.21-.028-.086-.012-.172-.023-.256-.036s-.137-.023-.206-.034-.165-.026-.246-.041-.134-.027-.2-.04-.16-.031-.238-.047-.13-.03-.2-.045-.154-.035-.23-.053-.128-.034-.192-.051-.148-.038-.221-.059l-.188-.056c-.071-.021-.143-.042-.213-.065l-.183-.062c-.069-.023-.139-.046-.207-.07l-.178-.067c-.067-.025-.135-.05-.2-.076s-.117-.048-.175-.072-.131-.054-.2-.082l-.17-.078c-.063-.029-.128-.058-.19-.088s-.111-.055-.166-.083-.124-.061-.186-.093l-.161-.087c-.061-.033-.122-.066-.182-.1s-.105-.061-.158-.092-.119-.07-.178-.106-.1-.065-.155-.1-.116-.073-.174-.111l-.153-.1-.17-.116-.15-.108-.168-.122L877-677.93l-.164-.127-.146-.119-.162-.133-.144-.123-.16-.138-.142-.128-.159-.145-.14-.132-.158-.15-.14-.137-.157-.156-.139-.142-.156-.161-.139-.147-.155-.166-.139-.152-.156-.172-.139-.156-.157-.178-.139-.16-.1-.122A4.548,4.548,0,0,0,872.641-684.431Zm26.394,12.7c0,.077-.01.153-.014.23-.008.151-.016.3-.028.451-.008.093-.019.185-.028.277-.013.134-.025.268-.041.4-.012.1-.028.2-.041.293-.018.127-.035.254-.056.381-.016.1-.037.2-.055.3-.023.123-.044.247-.07.37-.021.1-.045.2-.068.3-.027.121-.054.242-.084.362-.025.1-.054.2-.081.3-.032.12-.064.24-.1.359-.029.1-.061.195-.092.292s-.063.2-.1.3a27.629,27.629,0,0,1-16.636,5.508,27.923,27.923,0,0,1-20.137-8.6,13.617,13.617,0,0,0,7.41-3.3,15,15,0,0,0,4.748-6.056v0s.191-.424.656.063l.165.175.134.14.167.171.134.135.17.167.133.129.174.164.131.123.179.162.129.115.187.161.126.107c.065.055.131.108.2.161l.119.1c.071.057.144.112.216.167l.105.081q.131.1.264.192l.063.045q.332.234.676.446l.093.055c.084.051.168.1.254.15l.124.069c.076.042.153.085.23.126l.141.073c.073.037.147.075.221.112l.152.072c.073.034.145.069.219.1l.161.07.219.093.169.067c.073.029.147.057.221.085l.176.063.225.078.182.059.23.07.189.055.235.064.194.05.241.057.2.045.248.05.206.04.257.044.211.034.266.038.215.029c.092.012.185.021.279.032l.218.023c.1.01.2.017.3.025l.216.018.319.019.208.011c.12.006.243.009.365.013l.178.006q.275.006.56.006c.151,0,.3,0,.452-.006l.183-.006.255-.01.243-.013.172-.011.3-.023.055,0a19.143,19.143,0,0,0,6.146-1.581l.051-.022.213-.1.235-.11.1-.049a19.24,19.24,0,0,0,3.579-2.246q.054.131.106.264l.043.108q.075.2.145.393c.014.04.027.08.041.119.032.093.064.185.095.278.017.053.033.106.05.159.025.081.051.161.075.241.017.058.034.115.05.173.022.077.044.153.065.23.016.06.032.12.047.18.019.075.039.151.057.226s.029.123.044.184.034.149.051.224.026.125.039.187.03.15.045.225.023.125.035.188.026.151.039.226.021.126.03.188.022.153.033.229.017.125.025.188c.01.078.019.156.027.234.007.062.014.123.02.185.008.08.015.16.022.24.005.06.011.12.015.18.006.084.011.169.016.254,0,.056.007.112.01.169,0,.094.008.189.011.284,0,.047,0,.094.005.141,0,.142.005.284.005.426Q899.05-672.074,899.036-671.732Zm.155,3.83c.013-.048.024-.1.036-.145.019-.073.038-.147.056-.221q.054-.219.1-.44c.015-.069.03-.138.045-.208q.058-.285.107-.572c0-.024.009-.048.013-.072q.053-.322.094-.646c.008-.065.015-.13.022-.195q.027-.232.048-.464c.007-.076.013-.151.018-.227q.017-.231.028-.461c0-.068.007-.136.01-.2.008-.22.013-.439.013-.66q0-.227-.006-.452c0-.05,0-.1-.005-.151,0-.1-.007-.2-.012-.3,0-.061-.008-.123-.012-.184-.005-.088-.01-.176-.017-.263,0-.065-.012-.13-.017-.194-.008-.084-.014-.168-.023-.252-.007-.066-.015-.133-.023-.2s-.018-.163-.029-.244-.019-.136-.028-.2-.022-.157-.034-.236-.023-.139-.034-.208-.026-.154-.039-.23-.026-.14-.04-.209-.029-.151-.045-.227-.03-.14-.046-.21-.033-.149-.05-.223-.034-.14-.051-.21-.037-.147-.056-.22-.037-.14-.057-.21-.04-.145-.061-.217-.042-.141-.063-.211-.044-.143-.066-.214-.046-.141-.069-.211-.047-.14-.072-.211-.05-.141-.075-.211-.051-.138-.077-.208-.053-.14-.081-.211-.054-.136-.082-.2-.058-.141-.087-.211c-.011-.026-.021-.053-.033-.079a19.267,19.267,0,0,0,5.966-9.3l.019-.066c.032-.112.062-.225.092-.337.014-.053.028-.107.042-.16.024-.093.046-.187.069-.281.018-.074.035-.147.052-.221s.036-.162.053-.242.037-.175.054-.263c.014-.072.028-.143.041-.215.018-.1.035-.195.052-.293.011-.066.022-.131.032-.2.017-.1.032-.209.047-.313.009-.062.018-.123.026-.185.015-.108.027-.218.04-.327.007-.059.014-.118.02-.177.012-.112.022-.224.032-.336.005-.057.011-.115.015-.172.009-.115.016-.23.024-.346,0-.055.008-.11.01-.165.006-.122.011-.245.015-.369,0-.048,0-.1.006-.145q.007-.256.007-.514a19.331,19.331,0,0,0-.287-3.323,3.8,3.8,0,0,0,.681.063,3.874,3.874,0,0,0,.536-.037,3.853,3.853,0,0,0,2.018-.926,27.76,27.76,0,0,1,1.362,8.606A27.64,27.64,0,0,1,899.191-667.9Z" transform="translate(-852.959 718.085)"/><g transform="translate(29.921 12.748)"><path class="g" d="M964.079-671.177a4.679,4.679,0,0,1,4.673,4.673,4.678,4.678,0,0,1-4.673,4.673,4.679,4.679,0,0,1-4.673-4.673A4.679,4.679,0,0,1,964.079-671.177Z" transform="translate(-958.625 671.959)"/><path class="f" d="M962.152-662.977a5.461,5.461,0,0,0,5.455-5.455,5.461,5.461,0,0,0-5.455-5.455,5.461,5.461,0,0,0-5.455,5.455A5.461,5.461,0,0,0,962.152-662.977Zm0-10.128a4.678,4.678,0,0,1,4.673,4.673,4.678,4.678,0,0,1-4.673,4.673,4.679,4.679,0,0,1-4.673-4.673A4.679,4.679,0,0,1,962.152-673.105Z" transform="translate(-956.697 673.887)"/><path class="h" d="M968.284-665.269a2.938,2.938,0,0,0-2.969,2.969,2.938,2.938,0,0,0,2.969,2.969,2.938,2.938,0,0,0,2.97-2.969A2.938,2.938,0,0,0,968.284-665.269Zm-.843,3.752a.991.991,0,0,1-.991-.991.991.991,0,0,1,.991-.991.991.991,0,0,1,.991.991A.991.991,0,0,1,967.44-661.517Zm1.505-1.423a.577.577,0,0,1-.577-.577.577.577,0,0,1,.577-.577.577.577,0,0,1,.577.577A.577.577,0,0,1,968.946-662.94Z" transform="translate(-962.829 667.755)"/></g></g></svg>